<?xml version="1.0" encoding="UTF-8"?>
<svg version="1.1" xmlns="http://www.w3.org/2000/svg" width="160" height="184">
<path d="M0 0 C1.27870972 -0.00525696 2.55741943 -0.01051392 3.87487793 -0.01593018 C7.37076913 -0.02956924 10.86639376 -0.02431941 14.36228943 -0.01479292 C18.02701517 -0.00717855 21.69171864 -0.01424686 25.35644531 -0.01895142 C31.50980715 -0.02440381 37.66306084 -0.01723097 43.81640625 -0.00292969 C50.922646 0.01339591 58.0286275 0.00810703 65.13486099 -0.0084089 C71.24460174 -0.02203854 77.35426491 -0.02393623 83.46401596 -0.0160929 C87.10939515 -0.01142447 90.75465309 -0.01076855 94.40002441 -0.02070236 C98.46475429 -0.03100595 102.52904145 -0.0167106 106.59375 0 C107.79704956 -0.00607269 109.00034912 -0.01214539 110.2401123 -0.0184021 C117.63363155 0.03793254 122.2358262 0.75425788 127.984375 5.70068359 C133.83167094 12.49618968 133.72855352 18.4728213 133.68505859 27.09130859 C133.69294403 29.00937317 133.69294403 29.00937317 133.70098877 30.96618652 C133.71462783 34.46207772 133.709378 37.95770236 133.69985151 41.45359802 C133.69223715 45.11832376 133.69930545 48.78302723 133.70401001 52.44775391 C133.7094624 58.60111575 133.70228956 64.75436944 133.68798828 70.90771484 C133.67166269 78.01395459 133.67695157 85.11993609 133.6934675 92.22616959 C133.70709714 98.33591034 133.70899483 104.44557351 133.70115149 110.55532455 C133.69648307 114.20070374 133.69582714 117.84596169 133.70576096 121.49133301 C133.71606454 125.55606288 133.70176919 129.62035005 133.68505859 133.68505859 C133.69113129 134.88835815 133.69720398 136.09165771 133.70346069 137.3314209 C133.64712605 144.72494014 132.93080071 149.32713479 127.984375 155.07568359 C121.93606637 160.28004218 117.04416484 160.79915421 109.3828125 160.63012695 C108.39980667 160.62104309 107.41680084 160.61195923 106.40400696 160.6026001 C104.27434883 160.58229392 102.14474269 160.55579286 100.01522827 160.52378654 C96.63342398 160.47750108 93.25245371 160.45758153 89.87036133 160.44618225 C80.25618051 160.41321366 70.64300109 160.36643499 61.02978516 160.22045898 C55.14142091 160.13297181 49.25524467 160.10486474 43.36627197 160.11429024 C41.13362747 160.10685475 38.90093765 160.07783108 36.66888428 160.02592278 C21.18423054 159.60764166 21.18423054 159.60764166 8.19921875 167.14819336 C6.65679403 168.68324119 5.17664027 170.25007843 3.7230835 171.86931038 C1.40502494 174.33797962 -1.19552758 176.38644244 -3.828125 178.51318359 C-4.67632813 179.21701172 -5.52453125 179.92083984 -6.3984375 180.64599609 C-8.44807705 182.19538464 -10.36519967 183.3431202 -12.703125 184.38818359 C-12.11953425 176.07201548 -9.96513086 168.37359033 -7.703125 160.38818359 C-8.899375 160.30568359 -10.095625 160.22318359 -11.328125 160.13818359 C-15.65845729 159.57967784 -18.3162748 158.23621671 -21.703125 155.38818359 C-25.36407623 150.53989682 -26.82495593 147.08066164 -26.84356689 141.05656433 C-26.84927704 139.95044296 -26.85498718 138.84432159 -26.86087036 137.7046814 C-26.86198822 136.49059601 -26.86310608 135.27651062 -26.86425781 134.02563477 C-26.86922272 132.74736313 -26.87418762 131.46909149 -26.87930298 130.15208435 C-26.89241944 126.64370708 -26.89887052 123.13534894 -26.90331364 119.62695098 C-26.90624572 117.43435074 -26.9103508 115.24175571 -26.91481781 113.0491581 C-26.92849108 106.18701107 -26.93815843 99.32487598 -26.9420197 92.46271628 C-26.94649947 84.54515024 -26.9640442 76.62775693 -26.9930203 68.7102434 C-27.01464781 62.58784323 -27.02472456 56.46549161 -27.02606082 50.34305364 C-27.02710813 46.68754486 -27.03300005 43.03219848 -27.05088043 39.37672997 C-27.07044618 35.29735231 -27.06606791 31.21833542 -27.05957031 27.13891602 C-27.0687851 25.93090332 -27.07799988 24.72289062 -27.0874939 23.47827148 C-27.05044778 16.06405737 -26.35108162 11.46553858 -21.390625 5.70068359 C-14.59511891 -0.14661235 -8.61848729 -0.04349493 0 0 Z " fill="#653F21" transform="translate(26.703125,-0.38818359375)"/>
<path d="M0 0 C2 1.625 2 1.625 3 4 C2.67272727 10.32727273 2.67272727 10.32727273 0 13 C-0.45811675 14.97235333 -0.45811675 14.97235333 -0.625 17.125 C-0.810625 19.043125 -0.810625 19.043125 -1 21 C-0.44289841 20.98081009 0.11420319 20.96162018 0.68818665 20.94184875 C6.4787456 20.74540293 12.26966911 20.57041464 18.0612793 20.40795898 C20.22355792 20.34447239 22.38568232 20.27548813 24.54760742 20.20092773 C27.65259198 20.09479268 30.75759176 20.00834617 33.86328125 19.92578125 C34.83211746 19.88842361 35.80095367 19.85106598 36.79914856 19.81257629 C38.15020943 19.78220528 38.15020943 19.78220528 39.52856445 19.7512207 C40.32132278 19.72679398 41.11408112 19.70236725 41.93086243 19.67720032 C44 20 44 20 45.77970886 21.31311035 C47 23 47 23 46.99609375 26.23901367 C47.00054611 30.52580122 48.1937012 33.42997909 50.0625 37.17578125 C50.52861694 38.1526313 50.52861694 38.1526313 51.00415039 39.1492157 C51.9901376 41.21001375 52.9940839 43.26136668 54 45.3125 C55.00243775 47.38297125 56.00101637 49.45520714 56.99584961 51.52934265 C57.61388463 52.8150562 58.23693939 54.09837129 58.86547852 55.37898254 C61 59.77974586 61 59.77974586 61 62 C62.32 62 63.64 62 65 62 C64.46665441 68.66681989 62.54315374 72.59431403 57.6875 77.1875 C50.62843693 81.94826347 44.48859099 83.17007886 36 82 C28.90393866 79.50304007 24.66123492 75.18194059 20.6875 68.9375 C19.83868586 66.54538743 19.86007164 64.51871051 20 62 C21.32 62 22.64 62 24 62 C24.27183105 61.13938965 24.54366211 60.2787793 24.82373047 59.39208984 C25.98062705 56.05586711 27.33103284 52.92692943 28.8203125 49.7265625 C29.54371826 48.16542725 29.54371826 48.16542725 30.28173828 46.57275391 C30.89001465 45.26999512 31.49829102 43.96723633 32.125 42.625 C34.06375 38.45875 36.0025 34.2925 38 30 C18.695 29.505 18.695 29.505 -1 29 C-0.97679688 33.88554688 -0.95359375 38.77109375 -0.9296875 43.8046875 C-0.91947186 46.89453654 -0.90984419 49.98436485 -0.90234375 53.07421875 C-0.89037493 57.9816519 -0.87619594 62.88901063 -0.84912109 67.79638672 C-0.8274356 71.75155581 -0.81544048 75.70664511 -0.81024551 79.66186905 C-0.80654201 81.17299786 -0.79931025 82.68412217 -0.78853989 84.19521713 C-0.77408177 86.30716232 -0.77201963 88.41877524 -0.77294922 90.53076172 C-0.768508 91.73433319 -0.76406677 92.93790466 -0.75949097 94.177948 C-1 97 -1 97 -3 99 C-7.55555556 98.44444444 -7.55555556 98.44444444 -9 97 C-9.0942174 94.88318683 -9.11742761 92.76319242 -9.11352539 90.64428711 C-9.11367142 89.98089828 -9.11381744 89.31750946 -9.1139679 88.63401794 C-9.11326881 86.43176044 -9.10547665 84.22958655 -9.09765625 82.02734375 C-9.09579206 80.50419664 -9.09436816 78.98104893 -9.09336853 77.457901 C-9.08954346 73.44162349 -9.07971328 69.42538192 -9.06866455 65.40911865 C-9.0566555 60.59420261 -9.05204814 55.77927456 -9.04621124 50.96434784 C-9.03650151 43.64287353 -9.01734491 36.32147815 -9 29 C-21.54 29 -34.08 29 -47 29 C-42.39887296 38.74089729 -42.39887296 38.74089729 -37.78515625 48.47583008 C-37.21048054 49.6985158 -36.63623254 50.92140267 -36.0625 52.14453125 C-35.76021484 52.77693726 -35.45792969 53.40934326 -35.14648438 54.06091309 C-33.81762155 56.90678129 -33 58.81676123 -33 62 C-31.68 62 -30.36 62 -29 62 C-29.53334559 68.66681989 -31.45684626 72.59431403 -36.3125 77.1875 C-43.37156307 81.94826347 -49.51140901 83.17007886 -58 82 C-65.09606134 79.50304007 -69.33876508 75.18194059 -73.3125 68.9375 C-74.16131414 66.54538743 -74.13992836 64.51871051 -74 62 C-72.515 61.505 -72.515 61.505 -71 61 C-69.3925903 58.43759902 -69.3925903 58.43759902 -67.93359375 55.2421875 C-67.36576172 54.05882812 -66.79792969 52.87546875 -66.21289062 51.65625 C-65.9213208 51.03492188 -65.62975098 50.41359375 -65.3293457 49.7734375 C-64.44818791 47.89775094 -63.55079236 46.0305743 -62.65039062 44.1640625 C-59.02103067 36.53373577 -56.23011693 29.40579905 -55 21 C-49.8076462 19.90938538 -44.92959077 19.95242469 -39.6640625 20.12109375 C-38.78471039 20.14470474 -37.90535828 20.16831573 -36.99935913 20.19264221 C-34.2077236 20.26883866 -31.41639685 20.35305074 -28.625 20.4375 C-26.72527522 20.49076482 -24.82553564 20.54350488 -22.92578125 20.59570312 C-18.28366092 20.72439378 -13.64180065 20.86027071 -9 21 C-9.11458693 19.56163249 -9.24209116 18.12429034 -9.375 16.6875 C-9.47941406 15.48673828 -9.47941406 15.48673828 -9.5859375 14.26171875 C-9.89564426 11.72775559 -9.89564426 11.72775559 -12 9 C-11.8684799 5.31743715 -11.73329557 2.90251763 -9.375 0 C-5.88418213 -1.46981805 -3.60851044 -0.98413921 0 0 Z " fill="#FBF6E7" transform="translate(85,14)"/>
<path d="M0 0 C21.78 0 43.56 0 66 0 C66 4.29 66 8.58 66 13 C69.96 13 73.92 13 78 13 C78 16.63 78 20.26 78 24 C48.3 24 18.6 24 -12 24 C-12 20.37 -12 16.74 -12 13 C-8.04 13 -4.08 13 0 13 C0 8.71 0 4.42 0 0 Z " fill="#FEF9EB" transform="translate(47,116)"/>
<path d="M0 0 C0.99 0 1.98 0 3 0 C4.99869557 4.23355919 6.99239071 8.46942215 8.98144531 12.70751953 C9.65910378 14.14957414 10.33813524 15.59098436 11.01855469 17.03173828 C11.99513827 19.10021635 12.96679503 21.17094546 13.9375 23.2421875 C14.24373291 23.88807831 14.54996582 24.53396912 14.86547852 25.19943237 C17 29.77225659 17 29.77225659 17 32 C6.77 32 -3.46 32 -14 32 C-12.55931886 27.67795659 -11.08598166 23.82306697 -9.1796875 19.7265625 C-8.64472656 18.57285156 -8.10976563 17.41914062 -7.55859375 16.23046875 C-7.00300781 15.04066406 -6.44742187 13.85085937 -5.875 12.625 C-5.30569502 11.39987642 -4.73668183 10.17461721 -4.16796875 8.94921875 C-2.7815068 5.96480066 -1.3920964 2.98179297 0 0 Z " fill="#674224" transform="translate(32,44)"/>
<path d="M0 0 C3 1 3 1 4.62573242 3.8515625 C5.21312894 5.10435965 5.78897767 6.36261209 6.35546875 7.625 C6.66196854 8.28709473 6.96846832 8.94918945 7.28425598 9.63134766 C8.26180842 11.74987984 9.22449803 13.87482046 10.1875 16 C10.84739528 17.43271208 11.50819171 18.86500948 12.16992188 20.296875 C17 30.79771063 17 30.79771063 17 32 C6.77 32 -3.46 32 -14 32 C-12.80375 29.31875 -11.6075 26.6375 -10.375 23.875 C-6.84467954 15.94665188 -3.39082211 7.98898239 0 0 Z " fill="#684225" transform="translate(126,44)"/>
<path d="M0 0 C1.40914619 4.22743858 -0.38272625 6.80734737 -2.1875 10.625 C-2.49236328 11.31851563 -2.79722656 12.01203125 -3.11132812 12.7265625 C-4.04296875 14.7265625 -4.04296875 14.7265625 -6 18 C-8.12231445 18.70458984 -8.12231445 18.70458984 -10 19 C-8.79785181 14.95641064 -7.24723712 11.11170165 -5.5625 7.25 C-5.15128906 6.30640625 -4.74007812 5.3628125 -4.31640625 4.390625 C-3 2 -3 2 0 0 Z " fill="#EFE6D7" transform="translate(125,44)"/>
<path d="M0 0 C1.40914619 4.22743858 -0.38272625 6.80734737 -2.1875 10.625 C-2.49236328 11.31851563 -2.79722656 12.01203125 -3.11132812 12.7265625 C-4.04296875 14.7265625 -4.04296875 14.7265625 -6 18 C-8.12231445 18.70458984 -8.12231445 18.70458984 -10 19 C-8.79785181 14.95641064 -7.24723712 11.11170165 -5.5625 7.25 C-5.15128906 6.30640625 -4.74007813 5.3628125 -4.31640625 4.390625 C-3 2 -3 2 0 0 Z " fill="#EFE6D7" transform="translate(31,43)"/>
<path d="M0 0 C1.2077558 3.62326739 0.54311128 4.64146369 -1 8 C-1.99 7.67 -2.98 7.34 -4 7 C-2.92598892 4.08482708 -2.22189824 2.22189824 0 0 Z " fill="#F6EFE0" transform="translate(117,61)"/>
<path d="M0 0 C1.2077558 3.62326739 0.54311128 4.64146369 -1 8 C-1.99 7.67 -2.98 7.34 -4 7 C-2.92598892 4.08482708 -2.22189824 2.22189824 0 0 Z " fill="#F6EFE0" transform="translate(23,60)"/>
<path d="M0 0 C0.33 0.99 0.66 1.98 1 3 C-0.3125 5.1875 -0.3125 5.1875 -2 7 C-2.66 7 -3.32 7 -4 7 C-3.6875 4.625 -3.6875 4.625 -3 2 C-2.01 1.34 -1.02 0.68 0 0 Z " fill="#F4EDDE" transform="translate(125,44)"/>
<path d="M0 0 C0.33 0.99 0.66 1.98 1 3 C-0.3125 5.1875 -0.3125 5.1875 -2 7 C-2.66 7 -3.32 7 -4 7 C-3.6875 4.625 -3.6875 4.625 -3 2 C-2.01 1.34 -1.02 0.68 0 0 Z " fill="#F4EDDE" transform="translate(31,43)"/>
</svg>
