<svg width="224" height="224" viewBox="0 0 224 224" fill="none" xmlns="http://www.w3.org/2000/svg">
<rect x="25" y="8" width="175" height="178" rx="20" fill="#644020"/>
<path d="M64 58.5C64 56.0147 66.0147 54 68.5 54H156.5C158.985 54 161 56.0147 161 58.5V58.5C161 60.9853 158.985 63 156.5 63H68.5C66.0147 63 64 60.9853 64 58.5V58.5Z" fill="#FEF9EB"/>
<path d="M49.9624 106.967C48.3263 106.244 47.6403 104.357 48.43 102.752L67.6851 63.6249C68.4749 62.02 70.4415 61.305 72.0776 62.0279V62.0279C73.7137 62.7508 74.3997 64.6379 73.6099 66.2428L54.3549 105.37C53.5651 106.975 51.5985 107.69 49.9624 106.967V106.967Z" fill="#FEF9EB"/>
<path d="M134.962 106.967C133.326 106.244 132.64 104.357 133.43 102.752L152.685 63.6249C153.475 62.02 155.441 61.305 157.078 62.0279V62.0279C158.714 62.7508 159.4 64.6379 158.61 66.2428L139.355 105.37C138.565 106.975 136.599 107.69 134.962 106.967V106.967Z" fill="#FEF9EB"/>
<path d="M92.0776 106.967C93.7137 106.244 94.3997 104.357 93.6099 102.752L74.3549 63.6249C73.5651 62.02 71.5985 61.305 69.9624 62.0279V62.0279C68.3263 62.7508 67.6402 64.6379 68.43 66.2428L87.6851 105.37C88.4749 106.975 90.4414 107.69 92.0776 106.967V106.967Z" fill="#FEF9EB"/>
<path d="M177.078 106.967C178.714 106.244 179.4 104.357 178.61 102.752L159.355 63.6249C158.565 62.02 156.599 61.305 154.962 62.0279V62.0279C153.326 62.7508 152.64 64.6379 153.43 66.2428L172.685 105.37C173.475 106.975 175.441 107.69 177.078 106.967V106.967Z" fill="#FEF9EB"/>
<path d="M112.5 142C110.015 142 108 139.985 108 137.5V50.5C108 48.0147 110.015 46 112.5 46V46C114.985 46 117 48.0147 117 50.5V137.5C117 139.985 114.985 142 112.5 142V142Z" fill="#FEF9EB"/>
<ellipse cx="112.5" cy="43" rx="8.5" ry="8" fill="#FEF9EB"/>
<rect x="94" y="140" width="37" height="14" fill="#FEF9EB"/>
<rect x="79" y="148" width="67" height="9" fill="#FEF9EB"/>
<path d="M95.6418 105C95.6418 116.779 84.3052 126.327 70.3209 126.327C56.3365 126.327 45 116.779 45 105C45 105 56.3365 105 70.3209 105C84.3052 105 95.6418 105 95.6418 105Z" fill="#FEF9EB"/>
<path d="M180.642 105C180.642 116.779 169.305 126.327 155.321 126.327C141.337 126.327 130 116.779 130 105C130 105 141.337 105 155.321 105C169.305 105 180.642 105 180.642 105Z" fill="#FEF9EB"/>
<path d="M54 180H94L60.8292 218.248C60.8292 218.248 57.9022 220.465 55.9511 219.911C54 219.357 54 215.754 54 215.754V180Z" fill="#643F1F"/>
</svg>
