<svg width="246" height="246" viewBox="0 0 246 246" fill="none" xmlns="http://www.w3.org/2000/svg">
<rect x="36" y="30" width="175" height="178" rx="20" fill="#644020"/>
<path d="M75 80.5C75 78.0147 77.0147 76 79.5 76H167.5C169.985 76 172 78.0147 172 80.5V80.5C172 82.9853 169.985 85 167.5 85H79.5C77.0147 85 75 82.9853 75 80.5V80.5Z" fill="#FEF9EB"/>
<path d="M60.9624 128.967C59.3263 128.244 58.6403 126.357 59.43 124.752L78.6851 85.6249C79.4749 84.02 81.4415 83.305 83.0776 84.0279V84.0279C84.7137 84.7508 85.3997 86.6379 84.6099 88.2428L65.3549 127.37C64.5651 128.975 62.5985 129.69 60.9624 128.967V128.967Z" fill="#FEF9EB"/>
<path d="M145.962 128.967C144.326 128.244 143.64 126.357 144.43 124.752L163.685 85.6249C164.475 84.02 166.441 83.305 168.078 84.0279V84.0279C169.714 84.7508 170.4 86.6379 169.61 88.2428L150.355 127.37C149.565 128.975 147.599 129.69 145.962 128.967V128.967Z" fill="#FEF9EB"/>
<path d="M103.078 128.967C104.714 128.244 105.4 126.357 104.61 124.752L85.3549 85.6249C84.5651 84.02 82.5985 83.305 80.9624 84.0279V84.0279C79.3263 84.7508 78.6402 86.6379 79.43 88.2428L98.6851 127.37C99.4749 128.975 101.441 129.69 103.078 128.967V128.967Z" fill="#FEF9EB"/>
<path d="M188.078 128.967C189.714 128.244 190.4 126.357 189.61 124.752L170.355 85.6249C169.565 84.02 167.599 83.305 165.962 84.0279V84.0279C164.326 84.7508 163.64 86.6379 164.43 88.2428L183.685 127.37C184.475 128.975 186.441 129.69 188.078 128.967V128.967Z" fill="#FEF9EB"/>
<path d="M123.5 164C121.015 164 119 161.985 119 159.5V72.5C119 70.0147 121.015 68 123.5 68V68C125.985 68 128 70.0147 128 72.5V159.5C128 161.985 125.985 164 123.5 164V164Z" fill="#FEF9EB"/>
<ellipse cx="123.5" cy="65" rx="8.5" ry="8" fill="#FEF9EB"/>
<rect x="105" y="162" width="37" height="14" fill="#FEF9EB"/>
<rect x="90" y="170" width="67" height="9" fill="#FEF9EB"/>
<path d="M106.642 127C106.642 138.779 95.3052 148.327 81.3209 148.327C67.3365 148.327 56 138.779 56 127C56 127 67.3365 127 81.3209 127C95.3052 127 106.642 127 106.642 127Z" fill="#FEF9EB"/>
<path d="M191.642 127C191.642 138.779 180.305 148.327 166.321 148.327C152.337 148.327 141 138.779 141 127C141 127 152.337 127 166.321 127C180.305 127 191.642 127 191.642 127Z" fill="#FEF9EB"/>
<path d="M65 202H105L71.8292 240.248C71.8292 240.248 68.9022 242.465 66.9511 241.911C65 241.357 65 237.754 65 237.754V202Z" fill="#643F1F"/>
</svg>
